<svg width="400" height="400" xmlns="http://www.w3.org/2000/svg">
  <rect width="400" height="400" fill="#f0f0f0"/>
  <rect x="50" y="50" width="300" height="300" fill="#933" rx="20"/>
  <text x="200" y="170" text-anchor="middle" font-family="Arial, sans-serif" font-size="18" fill="white">Gaming</text>
  <text x="200" y="190" text-anchor="middle" font-family="Arial, sans-serif" font-size="18" fill="white">Keyboard</text>
  <rect x="80" y="220" width="240" height="80" fill="white" opacity="0.3" rx="8"/>
  <rect x="90" y="230" width="20" height="15" fill="white" opacity="0.6" rx="2"/>
  <rect x="115" y="230" width="20" height="15" fill="white" opacity="0.6" rx="2"/>
  <rect x="140" y="230" width="20" height="15" fill="white" opacity="0.6" rx="2"/>
  <rect x="165" y="230" width="20" height="15" fill="white" opacity="0.6" rx="2"/>
  <rect x="190" y="230" width="20" height="15" fill="white" opacity="0.6" rx="2"/>
  <rect x="215" y="230" width="20" height="15" fill="white" opacity="0.6" rx="2"/>
  <rect x="240" y="230" width="20" height="15" fill="white" opacity="0.6" rx="2"/>
  <rect x="265" y="230" width="20" height="15" fill="white" opacity="0.6" rx="2"/>
  <rect x="290" y="230" width="20" height="15" fill="white" opacity="0.6" rx="2"/>
</svg>